<?xml version="1.0" encoding="iso-8859-1"?>
<!-- Generator: Adobe Illustrator 19.0.0, SVG Export Plug-In . SVG Version: 6.00 Build 0)  -->
<svg version="1.1" id="Layer_1" xmlns="http://www.w3.org/2000/svg" xmlns:xlink="http://www.w3.org/1999/xlink" x="0px" y="0px"
	 viewBox="0 0 512 512" style="enable-background:new 0 0 512 512;" xml:space="preserve">
<g>
	<path style="fill:#8CC0C5;" d="M460.8,345.6c-21.171,0-38.4-17.229-38.4-38.4s17.229-38.4,38.4-38.4
		c21.171,0,38.4,17.229,38.4,38.4S481.971,345.6,460.8,345.6z"/>
	<path style="fill:#8CC0C5;" d="M51.2,320c-21.171,0-38.4-17.229-38.4-38.4c0-21.171,17.229-38.4,38.4-38.4s38.4,17.229,38.4,38.4
		C89.6,302.771,72.371,320,51.2,320z"/>
</g>
<path style="fill:#FF877F;" d="M243.2,294.4c-28.237,0-51.2-22.963-51.2-51.2s22.963-51.2,51.2-51.2s51.2,22.963,51.2,51.2
	S271.437,294.4,243.2,294.4z"/>
<path style="fill:#A9D0D3;" d="M243.2,89.6c-21.171,0-38.4-17.229-38.4-38.4s17.229-38.4,38.4-38.4s38.4,17.229,38.4,38.4
	S264.371,89.6,243.2,89.6z"/>
<path style="fill:#6FB0B6;" d="M217.6,499.2c-42.351,0-76.8-34.449-76.8-76.8s34.449-76.8,76.8-76.8s76.8,34.449,76.8,76.8
	S259.951,499.2,217.6,499.2z"/>
<path style="fill:#573A32;" d="M460.8,256c-18.62,0-34.782,10.095-43.75,24.994l-110.396-32.469
	c0.154-1.783,0.546-3.499,0.546-5.325c0-30.908-22.025-56.755-51.2-62.703v-79.915c22.025-5.726,38.4-25.6,38.4-49.382
	c0-28.228-22.963-51.2-51.2-51.2C214.972,0,192,22.972,192,51.2c0,23.782,16.384,43.657,38.4,49.382v79.915
	c-29.09,5.931-51.046,31.659-51.174,62.447l-82.125,16.427C88.798,242.295,71.433,230.4,51.2,230.4C22.972,230.4,0,253.372,0,281.6
	s22.972,51.2,51.2,51.2c27.247,0,49.382-21.453,50.91-48.333l82.116-16.427c6.938,16.401,20.625,29.107,37.47,35.166l-4.224,29.602
	C168.124,332.885,128,373.043,128,422.4c0,49.408,40.192,89.6,89.6,89.6s89.6-40.192,89.6-89.6c0-40.61-27.332-74.607-64.444-85.564
	l4.292-30.029c22.784-1.382,42.206-14.626,52.403-33.732l110.319,32.444c-0.017,0.58-0.171,1.109-0.171,1.681
	c0,28.228,22.972,51.2,51.2,51.2c28.237,0,51.2-22.972,51.2-51.2C512,278.972,489.037,256,460.8,256z M51.2,307.2
	c-14.14,0-25.6-11.46-25.6-25.6S37.06,256,51.2,256s25.6,11.46,25.6,25.6S65.34,307.2,51.2,307.2z M217.6,51.2
	c0-14.14,11.46-25.6,25.6-25.6c14.14,0,25.6,11.46,25.6,25.6s-11.46,25.6-25.6,25.6C229.06,76.8,217.6,65.34,217.6,51.2z
	 M281.6,422.4c0,35.345-28.655,64-64,64s-64-28.655-64-64s28.655-64,64-64S281.6,387.055,281.6,422.4z M243.2,281.6
	c-21.205,0-38.4-17.195-38.4-38.4s17.195-38.4,38.4-38.4s38.4,17.195,38.4,38.4S264.405,281.6,243.2,281.6z M460.8,332.8
	c-14.14,0-25.6-11.46-25.6-25.6s11.46-25.6,25.6-25.6s25.6,11.46,25.6,25.6S474.94,332.8,460.8,332.8z"/>
<g>
</g>
<g>
</g>
<g>
</g>
<g>
</g>
<g>
</g>
<g>
</g>
<g>
</g>
<g>
</g>
<g>
</g>
<g>
</g>
<g>
</g>
<g>
</g>
<g>
</g>
<g>
</g>
<g>
</g>
</svg>
