<?xml version="1.0" encoding="iso-8859-1"?>
<!-- Generator: Adobe Illustrator 19.0.0, SVG Export Plug-In . SVG Version: 6.00 Build 0)  -->
<svg version="1.1" id="Layer_1" xmlns="http://www.w3.org/2000/svg" xmlns:xlink="http://www.w3.org/1999/xlink" x="0px" y="0px"
	 viewBox="0 0 512 512" style="enable-background:new 0 0 512 512;" xml:space="preserve">
<path style="fill:#BCB0AD;" d="M179.2,268.8c-21.171,0-38.4-17.229-38.4-38.4v-128c0-49.408,40.192-89.6,89.6-89.6h51.2
	c49.408,0,89.6,40.192,89.6,89.6v128c0,21.171-17.229,38.4-38.4,38.4H179.2z"/>
<path style="fill:#9A8984;" d="M128,396.8c-21.171,0-38.4-17.229-38.4-38.4c0-21.171,17.229-38.4,38.4-38.4h256
	c21.171,0,38.4,17.229,38.4,38.4c0,21.171-17.229,38.4-38.4,38.4H128z"/>
<path style="fill:#573A32;" d="M384,409.6c28.228,0,51.2-22.972,51.2-51.2V217.6c0-7.074-5.726-12.8-12.8-12.8
	s-12.8,5.726-12.8,12.8v96.725c-7.561-4.412-16.23-7.125-25.6-7.125H268.8v-25.6h64c28.228,0,51.2-22.972,51.2-51.2v-128
	C384,45.935,338.065,0,281.6,0h-51.2C173.935,0,128,45.935,128,102.4v128c0,28.228,22.972,51.2,51.2,51.2h64v25.6H128
	c-9.37,0-18.039,2.714-25.6,7.125V217.6c0-7.074-5.726-12.8-12.8-12.8c-7.074,0-12.8,5.726-12.8,12.8v140.8
	c0,28.228,22.972,51.2,51.2,51.2h115.2v76.8H192c-7.074,0-12.8,5.726-12.8,12.8c0,7.074,5.726,12.8,12.8,12.8h128
	c7.074,0,12.8-5.726,12.8-12.8c0-7.074-5.726-12.8-12.8-12.8h-51.2v-76.8H384z M179.2,256c-14.14,0-25.6-11.46-25.6-25.6v-128
	c0-42.419,34.381-76.8,76.8-76.8h51.2c42.419,0,76.8,34.381,76.8,76.8v128c0,14.14-11.46,25.6-25.6,25.6H179.2z M128,384
	c-14.14,0-25.6-11.46-25.6-25.6s11.46-25.6,25.6-25.6h256c14.14,0,25.6,11.46,25.6,25.6S398.14,384,384,384H128z"/>
<g>
</g>
<g>
</g>
<g>
</g>
<g>
</g>
<g>
</g>
<g>
</g>
<g>
</g>
<g>
</g>
<g>
</g>
<g>
</g>
<g>
</g>
<g>
</g>
<g>
</g>
<g>
</g>
<g>
</g>
</svg>
