<?xml version="1.0" encoding="iso-8859-1"?>
<!-- Generator: Adobe Illustrator 19.0.0, SVG Export Plug-In . SVG Version: 6.00 Build 0)  -->
<svg version="1.1" id="Layer_1" xmlns="http://www.w3.org/2000/svg" xmlns:xlink="http://www.w3.org/1999/xlink" x="0px" y="0px"
	 viewBox="0 0 512 512" style="enable-background:new 0 0 512 512;" xml:space="preserve">
<path style="fill:#79615B;" d="M12.8,473.6V243.2h217.6v38.4c0,14.114,11.486,25.6,25.6,25.6c14.114,0,25.6-11.486,25.6-25.6v-38.4
	h217.6v230.4H12.8z"/>
<path style="fill:#FEDEA1;" d="M256,307.2c-14.114,0-25.6-11.486-25.6-25.6v-38.4h51.2v38.4C281.6,295.714,270.114,307.2,256,307.2z
	"/>
<rect x="12.8" y="115.2" style="fill:#9A8984;" width="486.4" height="128"/>
<path style="fill:#573A32;" d="M486.4,102.4H345.6V51.2c0-14.14-11.46-25.6-25.6-25.6H192c-14.14,0-25.6,11.46-25.6,25.6v51.2H25.6
	C11.46,102.4,0,113.86,0,128v332.8c0,14.14,11.46,25.6,25.6,25.6h460.8c14.14,0,25.6-11.46,25.6-25.6V128
	C512,113.86,500.54,102.4,486.4,102.4z M192,51.2h128v51.2H192V51.2z M486.4,460.8H25.6V256h192v25.6
	c0,21.171,17.229,38.4,38.4,38.4c21.171,0,38.4-17.229,38.4-38.4V256h192V460.8z M243.2,281.6V256h25.6v25.6
	c0,7.066-5.734,12.8-12.8,12.8C248.934,294.4,243.2,288.666,243.2,281.6z M486.4,230.4H25.6V128h460.8V230.4z"/>
<g>
</g>
<g>
</g>
<g>
</g>
<g>
</g>
<g>
</g>
<g>
</g>
<g>
</g>
<g>
</g>
<g>
</g>
<g>
</g>
<g>
</g>
<g>
</g>
<g>
</g>
<g>
</g>
<g>
</g>
</svg>
