<?xml version="1.0" encoding="iso-8859-1"?>
<!-- Generator: Adobe Illustrator 19.0.0, SVG Export Plug-In . SVG Version: 6.00 Build 0)  -->
<svg version="1.1" id="Layer_1" xmlns="http://www.w3.org/2000/svg" xmlns:xlink="http://www.w3.org/1999/xlink" x="0px" y="0px"
	 viewBox="0 0 512.001 512.001" style="enable-background:new 0 0 512.001 512.001;" xml:space="preserve">
<path style="fill:#8C573F;" d="M342.712,178.022H169.257c-12.886,0-23.331-10.446-23.331-23.331V81.511
	c0-33.595,27.332-60.927,60.927-60.927h98.263c33.595,0,60.927,27.332,60.927,60.927v73.179
	C366.043,167.576,355.597,178.022,342.712,178.022z M192.587,131.36h126.795v-49.85c0-7.866-6.398-14.266-14.266-14.266h-98.263
	c-7.866,0-14.266,6.4-14.266,14.266V131.36z"/>
<path style="opacity:0.15;fill:#333333;enable-background:new    ;" d="M319.381,83.705v47.655H192.587V83.705h-46.662v70.986
	c0,12.884,10.445,23.331,23.331,23.331h173.456c12.886,0,23.331-10.446,23.331-23.331V83.705H319.381z"/>
<path style="fill:#8C573F;" d="M23.515,239.171v216.394c0,19.801,16.052,35.854,35.854,35.854h393.263
	c19.801,0,35.854-16.052,35.854-35.854V239.171H23.515z"/>
<path style="opacity:0.15;fill:#333333;enable-background:new    ;" d="M23.515,329.844c12.532,7.899,27.35,12.489,43.226,12.489
	h378.518c15.877,0,30.694-4.59,43.226-12.489v-90.672H23.515V329.844z"/>
<path style="fill:#B06D4F;" d="M471.607,107.035H40.393c-17.476,0-31.644,14.168-31.644,31.644v122.329
	c0,32.029,25.965,57.993,57.993,57.993h378.516c32.029,0,57.993-25.965,57.993-57.993V138.678
	C503.251,121.202,489.084,107.035,471.607,107.035z"/>
<path style="fill:#E69673;" d="M91.548,220.334v169.431c0,15.412,12.494,27.906,27.906,27.906s27.906-12.494,27.906-27.906V220.334
	H91.548z"/>
<rect x="75.02" y="274.558" style="fill:#FFCA66;" width="88.879" height="88.879"/>
<g>
	<rect x="98.351" y="297.889" style="fill:#E69673;" width="42.217" height="42.217"/>
	<path style="fill:#E69673;" d="M420.421,220.334v169.431c0,15.412-12.494,27.906-27.906,27.906s-27.906-12.494-27.906-27.906
		V220.334H420.421z"/>
</g>
<rect x="348.072" y="274.558" style="fill:#FFCA66;" width="88.879" height="88.879"/>
<rect x="371.403" y="297.889" style="fill:#E69673;" width="42.217" height="42.217"/>
<g>
	<path style="fill:#26150C;" d="M89.596,340.109c0,4.833,3.917,8.749,8.749,8.749h42.217c4.832,0,8.749-3.916,8.749-8.749v-42.216
		c0-4.833-3.917-8.749-8.749-8.749H98.345c-4.832,0-8.749,3.916-8.749,8.749C89.596,297.893,89.596,340.109,89.596,340.109z
		 M107.094,306.641h24.719v24.718h-24.719V306.641z"/>
	<path style="fill:#26150C;" d="M362.657,340.11c0,4.833,3.917,8.749,8.749,8.749h42.217c4.832,0,8.749-3.916,8.749-8.749v-42.217
		c0-4.833-3.917-8.749-8.749-8.749h-42.217c-4.832,0-8.749,3.916-8.749,8.749V340.11z M380.155,306.641h24.719v24.719h-24.719
		V306.641z"/>
	<path style="fill:#26150C;" d="M471.609,98.286h-96.816V81.511c0-38.42-31.256-69.676-69.676-69.676h-98.263
		c-38.42,0-69.676,31.256-69.676,69.676v16.775H40.393C18.12,98.286,0,116.405,0,138.678v122.329
		c0,15.815,5.54,30.353,14.767,41.803v152.755c0,24.594,20.008,44.601,44.603,44.601h393.263c24.594,0,44.603-20.007,44.603-44.601
		V302.81c9.226-11.45,14.766-25.988,14.766-41.802v-122.33C512,116.405,493.881,98.286,471.609,98.286z M154.675,81.511
		c0-28.77,23.407-52.178,52.178-52.178h98.263c28.772,0,52.178,23.407,52.178,52.178v16.775h-29.163V81.511
		c0-12.69-10.324-23.015-23.015-23.015h-98.263c-12.69,0-23.015,10.325-23.015,23.015v16.775h-29.163V81.511z M310.633,81.511
		v16.775H201.337V81.511c0-3.041,2.475-5.517,5.517-5.517h98.263C308.159,75.995,310.633,78.47,310.633,81.511z M479.736,455.565
		c0,14.946-12.159,27.103-27.105,27.103H59.37c-14.946,0-27.105-12.159-27.105-27.103V318.139c10.203,6.158,22.081,9.527,34,9.61
		v35.693c0,4.833,3.917,8.749,8.749,8.749h7.784v17.573c0,20.211,16.444,36.655,36.655,36.655s36.655-16.444,36.655-36.655V372.19
		h7.785c4.832,0,8.749-3.916,8.749-8.749V327.75h166.683v35.691c0,4.833,3.917,8.749,8.749,8.749h7.785v17.573
		c0,20.211,16.444,36.655,36.655,36.655s36.655-16.444,36.655-36.655V372.19h7.784c4.832,0,8.749-3.916,8.749-8.749v-35.693
		c11.935-0.077,23.814-3.447,34.031-9.61V455.565z M147.36,283.31h7.785v35.69v35.691h-7.785H91.549h-7.784v-35.691v-35.69h7.784
		H147.36z M100.298,265.812v-36.73h38.314v36.73H100.298z M138.611,372.19v17.573c0,10.563-8.594,19.157-19.157,19.157
		s-19.157-8.594-19.157-19.157V372.19H138.611z M420.421,283.31h7.784v35.69v35.691h-7.784h-55.812h-7.785v-35.691v-35.69h7.785
		H420.421z M373.359,265.812v-36.73h38.313v36.73H373.359z M411.672,372.19v17.573c0,10.563-8.594,19.157-19.157,19.157
		c-10.563,0-19.157-8.594-19.157-19.157V372.19H411.672z M494.502,261.007c0,15.511-7.549,30.428-20.048,39.617
		c-8.281,6.088-18.467,9.52-28.751,9.615v-35.677c0-4.833-3.917-8.749-8.749-8.749h-7.784v-45.479c0-4.833-3.917-8.749-8.749-8.749
		h-55.812c-4.832,0-8.749,3.916-8.749,8.749v45.479h-7.786c-4.832,0-8.749,3.916-8.749,8.749v35.69H172.643v-35.69
		c0-4.833-3.917-8.749-8.749-8.749h-7.785v-45.479c0-4.833-3.917-8.749-8.749-8.749H91.549c-4.832,0-8.749,3.916-8.749,8.749v45.479
		h-7.784c-4.832,0-8.749,3.916-8.749,8.749v35.677c-0.433-0.005-0.864-0.019-1.295-0.035c-16.021-0.566-31.12-9.26-39.745-22.746
		c-5.035-7.868-7.728-17.111-7.728-26.45V138.678c0-12.624,10.27-22.894,22.895-22.894h105.533h46.662h126.795h46.662h105.565
		c12.624,0,22.893,10.27,22.893,22.894L494.502,261.007L494.502,261.007z"/>
</g>
<g>
</g>
<g>
</g>
<g>
</g>
<g>
</g>
<g>
</g>
<g>
</g>
<g>
</g>
<g>
</g>
<g>
</g>
<g>
</g>
<g>
</g>
<g>
</g>
<g>
</g>
<g>
</g>
<g>
</g>
</svg>
