<?xml version="1.0" encoding="iso-8859-1"?>
<!-- Generator: Adobe Illustrator 19.0.0, SVG Export Plug-In . SVG Version: 6.00 Build 0)  -->
<svg version="1.1" id="Layer_1" xmlns="http://www.w3.org/2000/svg" xmlns:xlink="http://www.w3.org/1999/xlink" x="0px" y="0px"
	 viewBox="0 0 512 512" style="enable-background:new 0 0 512 512;" xml:space="preserve">
<path style="fill:#A9D0D3;" d="M460.8,399.027h-38.4V460.8l-72.064-61.773H179.2c-21.171,0-38.4-17.229-38.4-38.4v-153.6
	c0-21.171,17.229-38.4,38.4-38.4h281.6c21.171,0,38.4,17.229,38.4,38.4v153.6C499.2,381.807,481.971,399.027,460.8,399.027z"/>
<path style="fill:#6FB0B6;" d="M51.2,268.8h38.4v61.773l72.064-61.773H332.8c21.171,0,38.4-17.229,38.4-38.4V76.8
	c0-21.171-17.229-38.4-38.4-38.4H51.2c-21.171,0-38.4,17.229-38.4,38.4v153.6C12.8,251.571,30.029,268.8,51.2,268.8z"/>
<path style="fill:#573A32;" d="M460.8,153.6H384V76.8c0-28.279-22.921-51.2-51.2-51.2H51.2C22.921,25.6,0,48.521,0,76.8v153.6
	c0,28.279,22.921,51.2,51.2,51.2h25.6v76.8l51.2-43.887V358.4c0,28.279,22.921,51.2,51.2,51.2h166.4l89.6,76.8v-76.8h25.6
	c28.279,0,51.2-22.921,51.2-51.2V204.8C512,176.521,489.079,153.6,460.8,153.6z M76.8,256H51.2c-14.114,0-25.6-11.486-25.6-25.6
	V76.8c0-14.114,11.486-25.6,25.6-25.6h281.6c14.114,0,25.6,11.486,25.6,25.6v153.6c0,14.114-11.486,25.6-25.6,25.6H166.4h-9.472
	l-7.185,6.161L102.4,302.737V281.6V256H76.8z M486.4,358.4c0,14.114-11.486,25.6-25.6,25.6h-25.6h-25.6v25.6v21.137l-47.343-40.576
	L355.072,384H345.6H179.2c-14.114,0-25.6-11.486-25.6-25.6v-65.826l12.8-10.974h166.4c28.279,0,51.2-22.921,51.2-51.2v-51.2h76.8
	c14.114,0,25.6,11.486,25.6,25.6V358.4z"/>
<g>
</g>
<g>
</g>
<g>
</g>
<g>
</g>
<g>
</g>
<g>
</g>
<g>
</g>
<g>
</g>
<g>
</g>
<g>
</g>
<g>
</g>
<g>
</g>
<g>
</g>
<g>
</g>
<g>
</g>
</svg>
