<?xml version="1.0" encoding="UTF-8" standalone="no"?>
<svg
   xmlns:dc="http://purl.org/dc/elements/1.1/"
   xmlns:cc="http://creativecommons.org/ns#"
   xmlns:rdf="http://www.w3.org/1999/02/22-rdf-syntax-ns#"
   xmlns:svg="http://www.w3.org/2000/svg"
   xmlns="http://www.w3.org/2000/svg"
   xmlns:sodipodi="http://sodipodi.sourceforge.net/DTD/sodipodi-0.dtd"
   xmlns:inkscape="http://www.inkscape.org/namespaces/inkscape"
   height="469.33333pt"
   viewBox="0 0 469.33333 469.33333"
   width="469.33333pt"
   version="1.1"
   id="svg12"
   sodipodi:docname="rupee.svg"
   inkscape:version="0.92.3 (2405546, 2018-03-11)">
  <metadata
     id="metadata18">
    <rdf:RDF>
      <cc:Work
         rdf:about="">
        <dc:format>image/svg+xml</dc:format>
        <dc:type
           rdf:resource="http://purl.org/dc/dcmitype/StillImage" />
      </cc:Work>
    </rdf:RDF>
  </metadata>
  <defs
     id="defs16" />
  <sodipodi:namedview
     pagecolor="#ffffff"
     bordercolor="#666666"
     borderopacity="1"
     objecttolerance="10"
     gridtolerance="10"
     guidetolerance="10"
     inkscape:pageopacity="0"
     inkscape:pageshadow="2"
     inkscape:window-width="1409"
     inkscape:window-height="828"
     id="namedview14"
     showgrid="false"
     inkscape:zoom="0.37713067"
     inkscape:cx="-749.07723"
     inkscape:cy="312.8889"
     inkscape:window-x="391"
     inkscape:window-y="125"
     inkscape:window-maximized="0"
     inkscape:current-layer="svg12" />
  <path
     d="m469.332031 234.667969c0 129.601562-105.0625 234.664062-234.664062 234.664062-129.605469 0-234.667969-105.0625-234.667969-234.664062 0-129.605469 105.0625-234.667969 234.667969-234.667969 129.601562 0 234.664062 105.0625 234.664062 234.667969zm0 0"
     fill="#ffc107"
     id="path2" />
  <path
     d="m282.644531 341.332031c-3.113281 0-6.230469-.894531-9-2.773437l-117.335937-80c-5.78125-3.964844-8.339844-11.242188-6.269532-17.941406 2.066407-6.695313 8.277344-11.285157 15.292969-11.285157h48c20.589844 0 37.335938-16.746093 37.335938-37.332031s-16.746094-37.332031-37.335938-37.332031h-48c-8.832031 0-16-7.167969-16-16s7.167969-16 16-16h48c38.230469 0 69.335938 31.101562 69.335938 69.332031 0 36.96875-29.101563 67.285156-65.601563 69.226562l74.625 50.878907c7.296875 4.972656 9.171875 14.933593 4.203125 22.25-3.09375 4.546875-8.128906 6.976562-13.25 6.976562zm0 0"
     id="path4" />
  <path
     d="m304 154.667969h-138.667969c-8.832031 0-16-7.167969-16-16s7.167969-16 16-16h138.667969c8.832031 0 16 7.167969 16 16s-7.167969 16-16 16zm0 0"
     id="path6" />
  <path
     d="m304 213.332031h-138.667969c-8.832031 0-16-7.167969-16-16s7.167969-16 16-16h138.667969c8.832031 0 16 7.167969 16 16s-7.167969 16-16 16zm0 0"
     id="path8" />
  <path
     d="m234.667969 469.332031c-129.386719 0-234.667969-105.277343-234.667969-234.664062s105.28125-234.667969 234.667969-234.667969 234.664062 105.28125 234.664062 234.667969-105.277343 234.664062-234.664062 234.664062zm0-437.332031c-111.746094 0-202.667969 90.921875-202.667969 202.667969 0 111.742187 90.921875 202.664062 202.667969 202.664062 111.742187 0 202.664062-90.921875 202.664062-202.664062 0-111.746094-90.921875-202.667969-202.664062-202.667969zm0 0"
     id="path10" />
  <path
     style="fill:#f4e468;stroke-width:2.65160084"
     d="M 260.91752,576.91094 C 182.14075,560.35299 115.89809,511.3591 75.822369,440.01229 63.492514,418.06143 49.449012,373.25556 45.951188,344.70811 29.822652,213.07521 115.01219,88.043965 245.00791,52.555918 c 19.57233,-5.343128 28.64565,-6.152904 68.94163,-6.152904 54.27264,0 71.00658,3.628173 115.34463,25.008483 32.02853,15.444517 46.91374,25.963436 72.49201,51.227903 34.43976,34.01721 59.04553,76.75089 72.63397,126.1459 8.11311,29.49169 8.11311,98.7155 0,128.20719 -17.15633,62.36448 -55.59653,118.9117 -105.35197,154.97731 -18.04273,13.07841 -61.98215,33.92328 -86.17702,40.88238 -25.58026,7.35756 -95.24953,9.67585 -121.97364,4.05876 z M 392.29228,449.56685 c 8.8207,-8.82068 8.89068,-23.37585 0.15087,-31.40344 -3.49651,-3.21172 -26.68038,-19.56152 -51.51959,-36.33289 -24.83919,-16.77138 -44.35121,-31.18718 -43.36001,-32.03511 0.9912,-0.84793 7.17167,-3.04273 13.73439,-4.87735 24.18838,-6.76187 46.15132,-25.37505 57.1452,-48.4295 l 4.57186,-9.58731 21.1042,-0.95839 c 19.46265,-0.88384 21.621,-1.55921 27.74837,-8.68271 5.3478,-6.21719 6.34822,-9.57395 5.12735,-17.20409 -2.30382,-14.39806 -9.56401,-18.76039 -31.22274,-18.76039 -15.17813,0 -18.59162,-0.80223 -19.74445,-4.6403 -0.76658,-2.55216 -3.60955,-10.3081 -6.31768,-17.2354 l -4.92386,-12.59511 h 24.96209 c 21.31942,0 25.72612,-0.76404 30.19783,-5.23575 11.58402,-11.58401 9.01515,-29.19791 -5.3159,-36.44952 -9.45219,-4.78288 -194.63002,-4.74727 -204.09311,0.0392 -13.88564,7.02349 -16.43771,25.40035 -5.00644,36.0502 4.93362,4.59636 10.33812,5.2533 49.68542,6.03949 40.61879,0.81159 44.93419,1.36997 53.95949,6.9819 8.46961,5.2664 20.68357,20.24749 20.68357,25.36953 0,0.92165 -26.54915,1.71367 -58.99812,1.76005 -42.19283,0.0603 -60.19651,1.00443 -63.2053,3.3145 -11.57607,8.88783 -12.53586,25.89005 -2.00047,35.43733 4.81235,4.361 11.74715,5.06476 61.49943,6.24106 l 56.07546,1.3258 -11.72644,7.9548 c -11.63477,7.8926 -12.07721,7.96517 -56.58459,9.2806 l -44.85813,1.3258 -6.63587,7.72451 c -7.4836,8.71134 -6.97715,20.6188 1.21034,28.45685 4.15651,3.97913 33.3393,24.12082 131.29018,90.61528 37.46179,25.43113 45.18397,27.69302 56.36665,16.51032 z"
     id="path3726"
     inkscape:connector-curvature="0"
     transform="scale(0.75)" />
  <path
     style="fill:#480c00;stroke-width:2.65160084"
     d="M 284.78193,622.69127 C 185.52828,615.04276 91.14988,554.0259 41.422089,465.35594 27.949001,441.33199 18.079023,416.25967 9.6621356,384.67738 3.6341372,362.0588 2.89674,354.23419 2.89674,312.88889 c 0,-41.35871 0.7362798,-49.16587 6.7730982,-71.81885 C 22.878376,191.50541 40.744367,155.02425 69.569373,118.75921 122.28034,52.442994 202.63601,9.5078122 286.10773,3.0596772 440.17947,-8.8422624 575.13858,87.349401 615.47296,237.81365 c 6.34355,23.66415 6.97524,30.46309 6.97524,75.07524 0,44.61215 -0.63169,51.4111 -6.97524,75.07526 -23.71958,88.48402 -80.97204,160.5465 -159.96527,201.3449 -53.35013,27.55427 -107.91141,38.22269 -170.72576,33.38222 z m 95.45763,-47.02818 c 32.61808,-8.41687 76.50131,-30.72449 103.30462,-52.51392 44.05716,-35.81573 77.34401,-87.42614 92.00047,-142.64445 6.17319,-23.25751 7.03809,-31.56668 7.03809,-67.61583 0,-36.04915 -0.8649,-44.35831 -7.03809,-67.61582 C 555.12928,168.35805 503.0834,104.89321 431.94577,70.168393 387.50958,48.477501 366.89607,43.872089 313.94954,43.806014 266.32355,43.746576 247.44665,46.970471 212.46692,61.137731 85.760663,112.45546 15.950137,249.84689 50.192044,380.50472 76.941592,482.57374 163.09327,561.99756 267.26185,580.62288 c 24.29884,4.34463 87.70779,1.56095 112.97771,-4.95979 z"
     id="path14"
     inkscape:connector-curvature="0"
     transform="scale(0.75)" />
  <path
     style="fill:#5c2000;stroke-width:2.65160084"
     d="m 353.36895,441.96882 c -9.28444,-6.30018 -45.51809,-30.88853 -80.51923,-54.64074 -35.00113,-23.75221 -65.72655,-45.57715 -68.27872,-48.49986 -6.16611,-7.06137 -5.86086,-15.71765 0.85536,-24.25593 5.48999,-6.9794 5.53575,-6.98661 44.41431,-7.00139 44.46961,-0.0169 55.09058,-2.19196 68.61065,-14.05076 l 9.66002,-8.47305 -58.69872,-1.3258 c -64.04768,-1.44662 -65.18879,-1.73585 -68.30417,-17.31277 -1.16795,-5.83974 -0.0726,-9.89305 4.11067,-15.21119 l 5.70289,-7.25006 h 60.79437 c 40.67931,0 60.79436,-0.9209 60.79436,-2.78328 0,-6.23538 -8.52512,-18.59464 -17.60128,-25.51737 -9.41739,-7.18299 -10.78741,-7.41009 -56.3493,-9.34074 -45.7945,-1.9405 -46.81259,-2.11125 -52.66336,-8.83255 -7.76209,-8.91702 -7.56734,-18.45589 0.54238,-26.56561 l 6.50847,-6.50847 h 99.67609 99.67608 l 6.50848,6.50847 c 8.35153,8.35154 8.50695,19.85724 0.37147,27.50013 -5.43847,5.10918 -9.09251,5.76541 -32.1029,5.76541 -23.72715,0 -25.79266,0.40008 -23.95657,4.6403 1.10512,2.55217 4.5136,11.50132 7.57439,19.88701 l 5.56507,15.2467 h 18.7631 c 16.1844,0 19.55545,0.84344 24.5285,6.137 7.64794,8.14087 7.34952,19.03596 -0.74306,27.12854 -5.75757,5.75757 -8.81167,6.50848 -26.47134,6.50848 h -19.96287 l -6.43534,12.5951 c -12.27819,24.03057 -36.9085,43.33433 -61.91574,48.52581 -12.09799,2.51153 -13.9523,3.60873 -10.93822,6.47213 1.99614,1.89636 23.31748,16.83275 47.38076,33.19199 24.06327,16.35923 46.43615,32.20335 49.71751,35.20914 12.26637,11.23628 3.51936,33.70828 -13.12061,33.70828 -3.74699,0 -14.40906,-5.15471 -23.6935,-11.45492 z"
     id="path16"
     inkscape:connector-curvature="0"
     transform="scale(0.75)" />
  <path
     style="fill:#682c00;stroke-width:2.65160084"
     d="M 370.06654,450.60686 C 366.65895,449.23999 338.61827,431.03484 307.75392,410.151 196.9384,335.16956 195.69384,334.07674 203.63268,318.7247 c 4.94001,-9.55292 8.0348,-10.16623 61.81401,-12.24991 34.72311,-1.34535 40.86203,-2.85237 52.18232,-12.81 2.90142,-2.55217 6.24353,-4.6403 7.42692,-4.6403 1.18339,0 2.15161,-1.19322 2.15161,-2.6516 0,-1.63004 -14.04654,-2.72421 -36.45951,-2.84005 -49.75296,-0.25716 -82.76745,-3.34524 -85.72612,-8.01858 -3.71305,-5.8649 -2.83518,-19.21583 1.68815,-25.67379 4.0294,-5.75277 5.37997,-5.8932 56.67797,-5.8932 55.19128,0 69.12271,-1.29519 69.12271,-6.4263 0,-5.57379 -20.69676,-24.81593 -29.68531,-27.59895 -4.81959,-1.49223 -26.35947,-3.52004 -47.86638,-4.50623 -32.81295,-1.50463 -40.14589,-2.61305 -45.58338,-6.89018 -9.81683,-7.72191 -10.82816,-14.53571 -3.70919,-24.99033 l 6.19643,-9.09979 99.86222,-0.0181 99.86222,-0.0181 6.86471,8.15825 c 7.66876,9.1138 7.88065,10.0372 4.40246,19.18554 -3.28363,8.63659 -15.19633,12.43022 -39.03324,12.43022 -22.71935,0 -23.10388,0.69433 -13.82013,24.95426 l 5.6712,14.81975 h 12.55856 c 21.08968,0 28.97379,2.61084 33.33153,11.03777 3.31914,6.41851 3.40893,8.84735 0.54767,14.81461 -4.77769,9.96406 -14.00112,13.83706 -33.06086,13.88255 l -16.38052,0.0391 -9.64014,15.86937 c -14.00566,23.05581 -36.05165,39.78158 -57.81767,43.86491 -10.9746,2.05885 -15.16715,6.16001 -9.53197,9.3242 2.02773,1.13858 6.23573,4.26282 9.35111,6.94275 3.11538,2.67992 23.67341,17.39219 45.68452,32.69393 44.14129,30.68625 48.76849,36.26236 41.59799,50.12859 -2.33992,4.5249 -5.31939,8.2271 -6.62104,8.2271 -1.30165,0 -3.95575,0.52199 -5.89801,1.15999 -1.94225,0.638 -6.31939,0.0416 -9.72698,-1.32527 z"
     id="path18"
     inkscape:connector-curvature="0"
     transform="scale(0.75)" />
  <path
     style="fill:#682c00;stroke-width:2.65160084"
     d="M 260.91752,619.20861 C 189.50129,607.0927 120.37171,567.33937 74.675569,512.10921 43.511689,474.44332 24.329171,436.19618 10.25541,383.66484 4.4940017,362.15996 3.7256184,353.83149 3.7256184,312.88889 c 0,-40.94259 0.7683833,-49.27106 6.5297916,-70.77594 C 36.2118,145.22881 89.86095,77.787601 175.01911,34.992003 221.56082,11.602812 256.56144,3.9302038 315.27534,4.2459469 c 49.70359,0.267289 73.3197,4.7427958 116.71328,22.1184271 89.35553,35.779687 159.00569,117.578566 184.28835,216.432796 7.61776,29.78519 7.61776,110.39826 0,140.18345 -27.60263,107.92524 -105.06785,191.69218 -208.69416,225.67114 -41.67945,13.66665 -102.52123,18.046 -146.66529,10.55685 z m 119.32204,-44.58792 c 49.79685,-13.17082 91.11735,-37.40067 126.06667,-73.92397 32.58828,-34.05595 52.90625,-68.32017 65.80719,-110.97719 9.52267,-31.48667 10.19082,-36.52416 10.19082,-76.83064 0,-40.30298 -0.66865,-45.3455 -10.18578,-76.81413 C 548.06513,156.5418 489.75407,93.129276 411.15014,61.023826 381.63096,48.966838 365.21426,45.515641 327.20754,43.37699 218.20003,37.2431 119.50405,95.29033 69.19201,195.1267 51.283844,230.66266 40.317427,281.77769 41.95906,322.06089 c 0.596756,14.64354 1.793418,29.60767 2.659248,33.25362 0.865827,3.64595 2.144031,9.7314 2.840453,13.52324 2.206119,12.01178 15.005945,48.28319 21.895917,62.04738 24.315206,48.57486 62.200282,89.10034 108.429192,115.98616 22.16329,12.88973 61.10162,28.1704 82.62644,32.42532 29.1751,5.76718 89.20146,3.42486 119.82925,-4.67592 z"
     id="path20"
     inkscape:connector-curvature="0"
     transform="scale(0.75)" />
  <path
     style="fill:#682c00;stroke-width:2.65160084"
     d="m 370.00549,450.58202 c -6.252,-2.5037 -99.79496,-65.2581 -142.23207,-95.41807 -12.35451,-8.78032 -23.77315,-18.41275 -25.37477,-21.40541 -3.51747,-6.57245 0.91777,-19.44421 7.71833,-22.39978 2.41864,-1.05116 24.21583,-3.29952 48.43821,-4.99637 42.66199,-2.98859 44.43741,-3.34796 56.71391,-11.47958 7.79674,-5.16435 11.25649,-8.84241 8.99134,-9.55872 -2.02505,-0.64038 -26.66384,-1.80045 -54.75289,-2.57794 -58.31764,-1.6142 -65.12116,-3.36814 -66.44434,-17.12928 -0.47317,-4.92096 1.01199,-11.6209 3.37562,-15.22826 l 4.22053,-6.44134 50.98219,-0.15281 c 50.89947,-0.15256 71.00298,-1.85742 71.20714,-6.03867 0.0595,-1.21774 -5.70643,-7.96787 -12.81309,-15.00028 -14.61229,-14.45964 -13.65513,-14.22081 -72.1038,-17.99099 -34.27394,-2.21082 -35.74729,-2.55068 -41.85895,-9.65592 -6.77788,-7.87975 -6.41775,-13.67073 1.53354,-24.65992 l 4.25652,-5.88278 100.76083,-0.0652 100.76083,-0.0652 6.29537,9.2442 c 5.59672,8.21831 5.93072,10.12454 3.00955,17.17685 -3.96433,9.57075 -14.90149,13.28035 -39.21865,13.30194 -20.51778,0.0183 -21.87928,2.37618 -13.81814,23.93147 l 5.93025,15.85733 h 13.86483 c 26.81058,0 40.01134,10.52594 32.59586,25.99108 -4.68044,9.76116 -13.98317,13.69611 -32.52348,13.75705 l -15.9096,0.0523 -11.58412,17.24873 c -16.13073,24.01862 -30.76548,35.12827 -56.24004,42.6934 -7.17732,2.13143 -13.04967,4.74065 -13.04967,5.79825 0,1.05761 4.77288,4.87272 10.6064,8.47804 5.83353,3.60531 10.60641,7.46665 10.60641,8.58076 0,1.1141 1.17958,2.02564 2.62129,2.02564 1.44171,0 4.72306,1.77101 7.2919,3.93557 2.56884,2.16456 17.72194,13.27508 33.67357,24.69005 15.95162,11.41497 31.34142,23.88661 34.19955,27.71477 4.60683,6.17036 4.80422,7.90755 1.73927,15.30703 -2.65931,6.42011 -12.8494,14.36354 -16.72268,13.03572 -0.26966,-0.0925 -3.30579,-1.29557 -6.74695,-2.67363 z"
     id="path22"
     inkscape:connector-curvature="0"
     transform="scale(0.75)" />
  <path
     style="fill:#573a32;fill-opacity:1;stroke-width:2.65160084"
     d="M 270.19812,620.27309 C 192.07636,609.50356 112.69033,562.56153 64.492173,498.63639 39.538204,465.54002 17.31757,415.13314 7.7311545,369.87567 2.3878776,344.65006 2.4495456,281.65601 7.8430788,255.54425 13.170593,229.7521 25.53658,194.83615 38.245185,169.70245 79.545525,88.023131 162.18857,25.966756 252.10132,9.1186168 285.6971,2.8233321 362.3556,4.8897431 391.92895,12.887819 c 49.49288,13.385279 94.0735,38.396404 131.19419,73.60406 40.84417,38.739231 69.5933,83.768761 86.13767,134.916791 9.49329,29.34918 12.23436,49.845 12.23436,91.48022 0,41.68346 -2.74648,62.17747 -12.25957,91.48023 -35.25495,108.59411 -127.06633,191.59261 -234.53818,212.02508 -27.93061,5.31015 -80.0763,7.24574 -104.4993,3.87889 z m 99.24807,-43.55437 c 92.29727,-19.64722 168.70781,-87.9217 199.16744,-177.96038 11.73108,-34.67706 11.48692,-32.85708 11.51974,-85.86945 0.0239,-39.7848 -0.89533,-52.31157 -4.86847,-66.29002 C 561.42872,197.91981 539.74467,160.01154 506.1906,125.84253 473.083,92.128172 439.36882,70.669254 396.14916,55.80166 374.73688,48.435818 374.41362,48.373025 340.29977,44.95237 238.83319,34.77814 142.22037,80.733426 87.22708,165.33007 57.804289,210.59139 43.834741,257.56825 43.347388,312.88889 c -0.32908,37.3547 1.078931,47.73887 10.47639,77.26413 21.620811,67.92902 66.983422,124.37405 126.868902,157.86392 28.57747,15.98144 68.41123,30.14666 89.50544,31.82895 10.20867,0.81412 19.15782,2.07405 19.88701,2.79982 2.33195,2.321 61.3044,-2.08328 79.36106,-5.92699 z"
     id="path825"
     inkscape:connector-curvature="0"
     transform="scale(0.75)" />
  <path
     style="fill:#573a32;fill-opacity:1;stroke-width:2.65160084"
     d="m 248.98532,616.24918 c -26.5628,-5.90649 -68.012,-22.74811 -93.73151,-38.08489 C 87.087656,537.51615 44.502149,483.59559 18.310359,404.77036 -10.384718,318.41138 3.6694827,220.42069 56.232317,140.3655 102.85993,69.349879 186.42133,17.189691 268.87232,7.6326507 295.52083,4.5437752 354.13876,6.1851055 378.24126,10.695034 488.68014,31.35975 588.39876,130.05493 615.25179,245.27307 c 7.37723,31.65336 6.85603,107.92164 -0.95132,139.20905 -27.73288,111.13795 -114.46385,198.98325 -225.44077,228.33727 -28.34779,7.49814 -112.31836,9.55717 -139.87438,3.42979 z m 118.4137,-39.28235 c 61.38833,-11.78732 120.33845,-48.89258 159.55517,-100.42959 19.87837,-26.12333 31.49781,-48.30421 43.36134,-82.77452 l 10.03851,-29.16761 9e-4,-50.38042 c 7.7e-4,-44.47946 -0.70466,-52.83243 -6.02282,-71.31489 C 548.80418,154.18102 481.19642,84.000109 392.8996,54.561975 351.71348,40.830533 286.10086,40.211565 239.88309,53.11847 155.20818,76.765025 85.559769,143.07873 56.333762,227.87962 42.560827,267.84257 39.027325,337.98767 48.976643,373.92901 70.517962,451.74575 114.8751,510.33438 180.60941,547.79469 c 25.91972,14.771 60.05294,27.26058 86.93711,31.81088 24.71717,4.18354 70.64286,2.9699 99.8525,-2.63874 z"
     id="path827"
     inkscape:connector-curvature="0"
     transform="scale(0.75)" />
  <path
     style="fill:#573a32;fill-opacity:1;stroke-width:2.65160084"
     d="m 308.72184,410.88472 c -78.46786,-52.51596 -105.16571,-72.18914 -107.36371,-79.11443 -0.93717,-2.95274 0.13854,-8.915 2.39609,-13.28061 4.78907,-9.26104 7.67593,-9.86777 63.1467,-13.27161 33.81505,-2.07498 37.26099,-2.78175 47.22309,-9.68549 7.42719,-5.14704 9.67401,-8.01398 7.2746,-9.28236 -1.90942,-1.00936 -25.80093,-2.50189 -53.09226,-3.31673 -55.40613,-1.65426 -63.84827,-3.73545 -65.26478,-16.08933 -0.47659,-4.15654 0.56309,-11.00874 2.3104,-15.22712 l 3.17692,-7.66977 38.78942,-0.0159 c 55.34325,-0.0227 82.54083,-2.43401 82.54083,-7.31807 0,-6.84356 -19.50463,-23.82993 -30.58954,-26.6401 -5.78065,-1.46547 -26.02214,-3.46472 -44.98108,-4.44277 -37.31191,-1.92484 -45.46171,-4.28517 -51.40453,-14.88769 -3.53382,-6.30465 -3.35146,-7.73788 2.10864,-16.5725 l 5.977,-9.671 101.20747,0.0181 101.20747,0.0181 6.09471,8.95135 c 12.68307,18.62774 0.15461,30.74898 -31.86265,30.82703 -23.79663,0.058 -24.46727,0.88165 -17.93583,22.02799 l 5.46864,17.70541 h 15.6783 c 18.59515,0 27.5198,3.51494 31.5864,12.44017 2.26724,4.97603 2.17811,8.23572 -0.3705,13.55091 -4.67886,9.75785 -13.97872,13.69444 -32.52348,13.76704 l -15.9096,0.0623 -10.20782,15.84379 c -15.83888,24.58392 -33.53835,37.95521 -59.49163,44.9437 -6.23392,1.67862 -10.61953,4.20871 -9.74581,5.62242 0.87372,1.41371 10.15718,8.4951 20.62991,15.73641 39.66042,27.42298 71.71037,51.96698 76.82922,58.83616 4.6946,6.29985 4.9143,8.07356 1.90111,15.34804 -3.49669,8.44174 -9.76023,13.32554 -17.09023,13.32554 -2.28409,0 -32.75515,-19.14257 -67.71347,-42.53902 z"
     id="path829"
     inkscape:connector-curvature="0"
     transform="scale(0.75)" />
  <path
     style="fill:#d4d0aa;fill-opacity:0.57740587;stroke-width:2.65160084"
     d="M 248.98532,573.03782 C 183.59107,555.68572 129.40545,517.69918 91.186827,462.41399 72.927832,436.00139 62.888272,413.0261 53.658981,376.53235 41.233955,327.4023 43.346492,273.37331 59.532787,226.30742 88.598241,141.79201 163.65219,73.17183 249.31148,52.796913 c 20.71183,-4.926515 29.4286,-5.466627 72.59286,-4.498024 44.74452,1.004064 50.86783,1.727231 69.69144,8.230595 62.22358,21.497607 110.69479,58.358846 144.56244,109.936426 30.16408,45.93738 40.36264,78.41724 42.2339,134.50438 1.63564,49.02532 -1.48999,70.71167 -15.25179,105.8208 -25.66487,65.47625 -71.18461,115.81994 -130.82874,144.69325 -48.01288,23.24271 -54.32221,24.6732 -113.05885,25.63337 -43.8054,0.71609 -54.54241,0.0928 -70.26742,-4.07989 z M 392.29228,449.56685 c 7.99317,-7.99314 8.82564,-22.99357 1.67305,-30.14615 -2.6595,-2.65951 -13.10018,-10.62449 -23.20151,-17.7 -57.1027,-39.9977 -70.07229,-49.48897 -70.07229,-51.27957 0,-1.08983 5.1457,-3.35777 11.4349,-5.03987 21.92365,-5.8637 44.31204,-25.42302 58.0463,-50.71143 4.41025,-8.12043 4.96329,-8.31694 23.40547,-8.31694 17.34131,0 19.52339,-0.6349 26.63933,-7.75084 9.88949,-9.88948 10.3654,-21.69487 1.24236,-30.8179 -5.39951,-5.39953 -9.12681,-6.5154 -21.87571,-6.54908 -8.45198,-0.0223 -17.05001,-1.10588 -19.10677,-2.40788 -3.2973,-2.08733 -13.48798,-24.76924 -13.49371,-30.03363 -10e-4,-1.09378 10.60465,-1.9887 23.56852,-1.9887 27.29536,0 33.99251,-3.44764 36.4427,-18.76038 1.22188,-7.6364 0.22008,-10.9879 -5.15193,-17.23541 l -6.66878,-7.75562 -99.00404,-0.67397 c -106.34542,-0.72396 -108.42677,-0.49359 -115.90413,12.82826 -4.44782,7.92434 -2.50561,18.82044 4.62586,25.95192 4.09422,4.09422 11.41954,5.11606 48.29217,6.73648 30.44067,1.33777 46.06714,3.14457 52.14649,6.0294 8.3256,3.95077 21.87698,17.51852 21.87698,21.90343 0,3.82056 -19.30832,5.38798 -66.73605,5.41752 -25.76698,0.0162 -48.7806,0.77039 -51.14139,1.67631 -5.13881,1.97194 -12.051,14.55496 -12.051,21.93774 0,2.90786 2.82151,8.56721 6.27002,12.57634 l 6.27001,7.28933 53.70253,2.00873 c 29.53639,1.1048 54.22123,2.52743 54.8552,3.1614 0.63397,0.63397 -4.19907,3.74341 -10.74009,6.90986 -10.11992,4.89898 -18.26029,5.99401 -54.60829,7.34587 l -42.71554,1.58868 -6.51692,7.74491 c -3.5843,4.25971 -6.51692,10.37094 -6.51692,13.58049 0,12.64424 1.68887,13.97961 110.61405,87.46096 66.83034,45.084 72.13417,47.28472 84.39913,35.01974 z"
     id="path831"
     inkscape:connector-curvature="0"
     transform="scale(0.75)" />
  <path
     style="fill:#d4d0aa;fill-opacity:0;stroke-width:2.65160084"
     d="M 261.54742,575.28158 C 211.06354,566.23071 156.3074,535.38941 117.73108,494.27727 86.468264,460.95937 67.113767,425.85804 54.985698,380.48215 48.76917,357.22366 47.882679,348.80838 47.725574,311.56309 47.521529,263.18955 51.902003,241.7502 70.002666,202.53236 102.54972,132.01423 166.80095,76.687036 241.14062,55.164257 c 18.92119,-5.478053 26.44788,-6.095076 72.80892,-5.96873 45.48474,0.123957 53.99062,0.842285 70.69173,5.969956 80.72178,24.783653 143.11599,80.912807 176.53913,158.812667 14.38345,33.52374 21.31346,95.91637 15.49786,139.53104 -8.74198,65.56139 -51.72989,135.70869 -107.5957,175.57371 -20.2066,14.41911 -66.76609,37.03833 -86.64039,42.091 -18.61077,4.73147 -101.67351,7.55373 -120.89475,4.10768 z M 392.29228,449.56685 c 8.12246,-8.12244 8.82591,-22.9933 1.43717,-30.38204 -2.78922,-2.78922 -24.89148,-19.10868 -49.11613,-36.26541 -24.22463,-17.15676 -43.1222,-31.97916 -41.99459,-32.93864 1.12761,-0.95948 7.75226,-3.84334 14.72141,-6.40858 17.51629,-6.44742 36.37713,-22.06269 47.08503,-38.98271 4.95624,-7.83155 10.24375,-15.11583 11.74996,-16.18728 1.50625,-1.07145 10.28806,-1.96637 19.5151,-1.9887 14.97982,-0.0363 17.60655,-0.87067 24.5273,-7.79144 9.88949,-9.88948 10.3654,-21.69487 1.24236,-30.8179 -5.21239,-5.2124 -9.20734,-6.50848 -20.06132,-6.50848 -16.85925,0 -22.81369,-3.08756 -27.47661,-14.2475 -9.00574,-21.55377 -10.08807,-20.22331 16.45157,-20.22331 27.46843,0 34.16733,-3.4229 36.61285,-18.7079 1.23064,-7.69151 0.17792,-11.00851 -5.71783,-18.01511 l -7.22617,-8.58781 -101.98481,0.7797 -101.9848,0.77971 -6.39683,7.43976 c -7.3974,8.60346 -7.99104,14.93096 -2.41283,25.71801 4.71309,9.11413 6.27062,9.4479 60.29129,12.92001 32.24676,2.07262 40.66538,3.48881 48.11737,8.09439 11.40445,7.04834 18.82018,17.64006 14.30456,20.43087 -1.74475,1.07832 -26.49081,2.39039 -54.99124,2.91572 -28.50044,0.52533 -54.48202,1.51241 -57.73685,2.19352 -6.43858,1.34733 -13.96914,13.44799 -13.96914,22.44664 0,3.10137 3.48788,9.12673 7.75084,13.38968 7.56785,7.56785 8.42859,7.75747 36.45951,8.03161 15.78977,0.15442 39.44766,1.0546 52.57308,2.00039 l 23.86441,1.71962 -9.03162,4.91075 c -9.50149,5.16623 -44.3188,9.38281 -78.89839,9.55508 -17.89666,0.0892 -19.38309,0.56365 -25.85311,8.25285 -11.81522,14.04158 -8.81627,23.46505 12.43965,39.08863 24.06135,17.68559 135.35553,92.39999 146.38142,98.26928 13.771,7.33056 21.34148,7.10252 29.32739,-0.88341 z"
     id="path826"
     inkscape:connector-curvature="0"
     transform="scale(0.75)" />
  <path
     style="fill:#d4d010;fill-opacity:0;stroke-width:2.65160084"
     d="M 262.19457,575.42278 C 240.65824,571.98925 204.86461,558.28726 180.38268,544.10475 134.78513,517.68984 97.095014,478.07527 75.186048,433.53673 1.1367254,283.00255 74.755585,110.17462 235.72731,56.649407 c 21.9713,-7.305743 23.94021,-7.489486 78.22223,-7.299897 53.09637,0.185448 56.64246,0.522408 76.32044,7.252136 24.75688,8.466675 53.50713,22.650973 73.74704,36.384038 48.56136,32.949556 91.5362,92.667496 106.19144,147.563856 8.01414,30.01983 10.0204,100.86456 3.66531,129.42949 -14.45019,64.9508 -55.94801,126.21285 -110.66361,163.3695 -19.83745,13.47135 -60.93615,32.91143 -80.17014,37.92126 -17.47943,4.55282 -100.45227,7.40427 -120.84545,4.15299 z m 131.06729,-127.5057 c 7.81268,-9.28485 8.68267,-17.23384 2.80468,-25.62587 -2.23302,-3.18807 -24.34135,-20.218 -49.1296,-37.84428 -24.78828,-17.62628 -44.4252,-33.09041 -43.63761,-34.36475 0.78759,-1.27436 7.34854,-4.28215 14.57988,-6.68402 15.98361,-5.3089 36.84521,-23.45932 49.2476,-42.8474 l 9.06948,-14.17787 17.93124,-0.0843 c 18.84882,-0.0886 23.37911,-2.07953 30.84657,-13.5558 9.39012,-14.43107 -3.13201,-31.40665 -23.21643,-31.4733 -17.96932,-0.0596 -22.10319,-2.28203 -28.14221,-15.12949 -8.2223,-17.49219 -6.52108,-19.30512 18.1155,-19.30512 17.16779,0 22.19657,-0.98967 27.92501,-5.49565 8.90466,-7.00441 9.60347,-22.28158 1.49095,-32.59497 l -5.49566,-6.98659 h -97.5211 c -100.48906,0 -111.7493,1.03146 -116.92963,10.71099 -4.57844,8.55489 -2.97648,20.96842 3.54794,27.49285 5.64504,5.64503 9.24919,6.29555 44.41432,8.01642 21.04891,1.03007 43.04362,3.08504 48.87714,4.56662 10.61022,2.69474 27.84181,16.47717 27.84181,22.26886 0,4.16392 -26.7805,6.45034 -75.82256,6.47343 -43.40352,0.0204 -45.10565,0.55609 -50.99562,16.04789 -3.159,8.3088 1.94479,22.00649 9.75764,26.1878 2.93957,1.5732 15.26718,2.8658 27.39469,2.87244 12.12752,0.007 35.55317,0.79009 52.05702,1.74103 l 30.00698,1.72897 -8.1738,5.17528 c -8.5533,5.41557 -42.89785,9.5526 -81.25971,9.78828 -20.37257,0.12516 -24.59216,2.49216 -30.0545,16.85919 -5.6661,14.90298 -3.26093,17.07422 85.64253,77.31246 93.40322,63.28717 95.82713,64.37692 108.82745,48.92692 z"
     id="path830"
     inkscape:connector-curvature="0"
     transform="scale(0.75)" />
  <path
     style="fill:#d4d010;fill-opacity:0;stroke-width:2.65160084"
     d="M 262.19457,575.42278 C 240.65824,571.98925 204.86461,558.28726 180.38268,544.10475 134.78513,517.68984 97.095014,478.07527 75.186048,433.53673 1.1367254,283.00255 74.755585,110.17462 235.72731,56.649407 c 21.9713,-7.305743 23.94021,-7.489486 78.22223,-7.299897 53.09637,0.185448 56.64246,0.522408 76.32044,7.252136 24.75688,8.466675 53.50713,22.650973 73.74704,36.384038 48.56136,32.949556 91.5362,92.667496 106.19144,147.563856 8.01414,30.01983 10.0204,100.86456 3.66531,129.42949 -14.45019,64.9508 -55.94801,126.21285 -110.66361,163.3695 -19.83745,13.47135 -60.93615,32.91143 -80.17014,37.92126 -17.47943,4.55282 -100.45227,7.40427 -120.84545,4.15299 z m 131.06729,-127.5057 c 7.81268,-9.28485 8.68267,-17.23384 2.80468,-25.62587 -2.23302,-3.18807 -24.34135,-20.218 -49.1296,-37.84428 -24.78828,-17.62628 -44.4252,-33.09041 -43.63761,-34.36475 0.78759,-1.27436 7.34854,-4.28215 14.57988,-6.68402 15.98361,-5.3089 36.84521,-23.45932 49.2476,-42.8474 l 9.06948,-14.17787 17.93124,-0.0843 c 18.84882,-0.0886 23.37911,-2.07953 30.84657,-13.5558 9.39012,-14.43107 -3.13201,-31.40665 -23.21643,-31.4733 -17.96932,-0.0596 -22.10319,-2.28203 -28.14221,-15.12949 -8.2223,-17.49219 -6.52108,-19.30512 18.1155,-19.30512 17.16779,0 22.19657,-0.98967 27.92501,-5.49565 8.90466,-7.00441 9.60347,-22.28158 1.49095,-32.59497 l -5.49566,-6.98659 h -97.5211 c -100.48906,0 -111.7493,1.03146 -116.92963,10.71099 -4.57844,8.55489 -2.97648,20.96842 3.54794,27.49285 5.64504,5.64503 9.24919,6.29555 44.41432,8.01642 21.04891,1.03007 43.04362,3.08504 48.87714,4.56662 10.61022,2.69474 27.84181,16.47717 27.84181,22.26886 0,4.16392 -26.7805,6.45034 -75.82256,6.47343 -43.40352,0.0204 -45.10565,0.55609 -50.99562,16.04789 -3.159,8.3088 1.94479,22.00649 9.75764,26.1878 2.93957,1.5732 15.26718,2.8658 27.39469,2.87244 12.12752,0.007 35.55317,0.79009 52.05702,1.74103 l 30.00698,1.72897 -8.1738,5.17528 c -8.5533,5.41557 -42.89785,9.5526 -81.25971,9.78828 -20.37257,0.12516 -24.59216,2.49216 -30.0545,16.85919 -5.6661,14.90298 -3.26093,17.07422 85.64253,77.31246 93.40322,63.28717 95.82713,64.37692 108.82745,48.92692 z"
     id="path832"
     inkscape:connector-curvature="0"
     transform="scale(0.75)" />
  <path
     style="fill:#d4d010;fill-opacity:0;stroke-width:2.65160084"
     d="M 262.19457,575.42278 C 240.65824,571.98925 204.86461,558.28726 180.38268,544.10475 134.78513,517.68984 97.095014,478.07527 75.186048,433.53673 1.1367254,283.00255 74.755585,110.17462 235.72731,56.649407 c 21.9713,-7.305743 23.94021,-7.489486 78.22223,-7.299897 53.09637,0.185448 56.64246,0.522408 76.32044,7.252136 24.75688,8.466675 53.50713,22.650973 73.74704,36.384038 48.56136,32.949556 91.5362,92.667496 106.19144,147.563856 8.01414,30.01983 10.0204,100.86456 3.66531,129.42949 -14.45019,64.9508 -55.94801,126.21285 -110.66361,163.3695 -19.83745,13.47135 -60.93615,32.91143 -80.17014,37.92126 -17.47943,4.55282 -100.45227,7.40427 -120.84545,4.15299 z m 131.06729,-127.5057 c 7.81268,-9.28485 8.68267,-17.23384 2.80468,-25.62587 -2.23302,-3.18807 -24.34135,-20.218 -49.1296,-37.84428 -24.78828,-17.62628 -44.4252,-33.09041 -43.63761,-34.36475 0.78759,-1.27436 7.34854,-4.28215 14.57988,-6.68402 15.98361,-5.3089 36.84521,-23.45932 49.2476,-42.8474 l 9.06948,-14.17787 17.93124,-0.0843 c 18.84882,-0.0886 23.37911,-2.07953 30.84657,-13.5558 9.39012,-14.43107 -3.13201,-31.40665 -23.21643,-31.4733 -17.96932,-0.0596 -22.10319,-2.28203 -28.14221,-15.12949 -8.2223,-17.49219 -6.52108,-19.30512 18.1155,-19.30512 17.16779,0 22.19657,-0.98967 27.92501,-5.49565 8.90466,-7.00441 9.60347,-22.28158 1.49095,-32.59497 l -5.49566,-6.98659 h -97.5211 c -100.48906,0 -111.7493,1.03146 -116.92963,10.71099 -4.57844,8.55489 -2.97648,20.96842 3.54794,27.49285 5.64504,5.64503 9.24919,6.29555 44.41432,8.01642 21.04891,1.03007 43.04362,3.08504 48.87714,4.56662 10.61022,2.69474 27.84181,16.47717 27.84181,22.26886 0,4.16392 -26.7805,6.45034 -75.82256,6.47343 -43.40352,0.0204 -45.10565,0.55609 -50.99562,16.04789 -3.159,8.3088 1.94479,22.00649 9.75764,26.1878 2.93957,1.5732 15.26718,2.8658 27.39469,2.87244 12.12752,0.007 35.55317,0.79009 52.05702,1.74103 l 30.00698,1.72897 -8.1738,5.17528 c -8.5533,5.41557 -42.89785,9.5526 -81.25971,9.78828 -20.37257,0.12516 -24.59216,2.49216 -30.0545,16.85919 -5.6661,14.90298 -3.26093,17.07422 85.64253,77.31246 93.40322,63.28717 95.82713,64.37692 108.82745,48.92692 z"
     id="path834"
     inkscape:connector-curvature="0"
     transform="scale(0.75)" />
  <path
     style="fill:#d4d010;fill-opacity:0;stroke-width:2.65160084"
     d="M 262.19457,575.42278 C 240.65824,571.98925 204.86461,558.28726 180.38268,544.10475 134.78513,517.68984 97.095014,478.07527 75.186048,433.53673 1.1367254,283.00255 74.755585,110.17462 235.72731,56.649407 c 21.9713,-7.305743 23.94021,-7.489486 78.22223,-7.299897 53.09637,0.185448 56.64246,0.522408 76.32044,7.252136 24.75688,8.466675 53.50713,22.650973 73.74704,36.384038 48.56136,32.949556 91.5362,92.667496 106.19144,147.563856 8.01414,30.01983 10.0204,100.86456 3.66531,129.42949 -14.45019,64.9508 -55.94801,126.21285 -110.66361,163.3695 -19.83745,13.47135 -60.93615,32.91143 -80.17014,37.92126 -17.47943,4.55282 -100.45227,7.40427 -120.84545,4.15299 z m 131.06729,-127.5057 c 7.81268,-9.28485 8.68267,-17.23384 2.80468,-25.62587 -2.23302,-3.18807 -24.34135,-20.218 -49.1296,-37.84428 -24.78828,-17.62628 -44.4252,-33.09041 -43.63761,-34.36475 0.78759,-1.27436 7.34854,-4.28215 14.57988,-6.68402 15.98361,-5.3089 36.84521,-23.45932 49.2476,-42.8474 l 9.06948,-14.17787 17.93124,-0.0843 c 18.84882,-0.0886 23.37911,-2.07953 30.84657,-13.5558 9.39012,-14.43107 -3.13201,-31.40665 -23.21643,-31.4733 -17.96932,-0.0596 -22.10319,-2.28203 -28.14221,-15.12949 -8.2223,-17.49219 -6.52108,-19.30512 18.1155,-19.30512 17.16779,0 22.19657,-0.98967 27.92501,-5.49565 8.90466,-7.00441 9.60347,-22.28158 1.49095,-32.59497 l -5.49566,-6.98659 h -97.5211 c -100.48906,0 -111.7493,1.03146 -116.92963,10.71099 -4.57844,8.55489 -2.97648,20.96842 3.54794,27.49285 5.64504,5.64503 9.24919,6.29555 44.41432,8.01642 21.04891,1.03007 43.04362,3.08504 48.87714,4.56662 10.61022,2.69474 27.84181,16.47717 27.84181,22.26886 0,4.16392 -26.7805,6.45034 -75.82256,6.47343 -43.40352,0.0204 -45.10565,0.55609 -50.99562,16.04789 -3.159,8.3088 1.94479,22.00649 9.75764,26.1878 2.93957,1.5732 15.26718,2.8658 27.39469,2.87244 12.12752,0.007 35.55317,0.79009 52.05702,1.74103 l 30.00698,1.72897 -8.1738,5.17528 c -8.5533,5.41557 -42.89785,9.5526 -81.25971,9.78828 -20.37257,0.12516 -24.59216,2.49216 -30.0545,16.85919 -5.6661,14.90298 -3.26093,17.07422 85.64253,77.31246 93.40322,63.28717 95.82713,64.37692 108.82745,48.92692 z"
     id="path836"
     inkscape:connector-curvature="0"
     transform="scale(0.75)" />
  <path
     style="fill:#d4d010;fill-opacity:0;stroke-width:2.65160084"
     d="M 262.19457,575.42278 C 240.65824,571.98925 204.86461,558.28726 180.38268,544.10475 134.78513,517.68984 97.095014,478.07527 75.186048,433.53673 1.1367254,283.00255 74.755585,110.17462 235.72731,56.649407 c 21.9713,-7.305743 23.94021,-7.489486 78.22223,-7.299897 53.09637,0.185448 56.64246,0.522408 76.32044,7.252136 24.75688,8.466675 53.50713,22.650973 73.74704,36.384038 48.56136,32.949556 91.5362,92.667496 106.19144,147.563856 8.01414,30.01983 10.0204,100.86456 3.66531,129.42949 -14.45019,64.9508 -55.94801,126.21285 -110.66361,163.3695 -19.83745,13.47135 -60.93615,32.91143 -80.17014,37.92126 -17.47943,4.55282 -100.45227,7.40427 -120.84545,4.15299 z m 131.06729,-127.5057 c 7.81268,-9.28485 8.68267,-17.23384 2.80468,-25.62587 -2.23302,-3.18807 -24.34135,-20.218 -49.1296,-37.84428 -24.78828,-17.62628 -44.4252,-33.09041 -43.63761,-34.36475 0.78759,-1.27436 7.34854,-4.28215 14.57988,-6.68402 15.98361,-5.3089 36.84521,-23.45932 49.2476,-42.8474 l 9.06948,-14.17787 17.93124,-0.0843 c 18.84882,-0.0886 23.37911,-2.07953 30.84657,-13.5558 9.39012,-14.43107 -3.13201,-31.40665 -23.21643,-31.4733 -17.96932,-0.0596 -22.10319,-2.28203 -28.14221,-15.12949 -8.2223,-17.49219 -6.52108,-19.30512 18.1155,-19.30512 17.16779,0 22.19657,-0.98967 27.92501,-5.49565 8.90466,-7.00441 9.60347,-22.28158 1.49095,-32.59497 l -5.49566,-6.98659 h -97.5211 c -100.48906,0 -111.7493,1.03146 -116.92963,10.71099 -4.57844,8.55489 -2.97648,20.96842 3.54794,27.49285 5.64504,5.64503 9.24919,6.29555 44.41432,8.01642 21.04891,1.03007 43.04362,3.08504 48.87714,4.56662 10.61022,2.69474 27.84181,16.47717 27.84181,22.26886 0,4.16392 -26.7805,6.45034 -75.82256,6.47343 -43.40352,0.0204 -45.10565,0.55609 -50.99562,16.04789 -3.159,8.3088 1.94479,22.00649 9.75764,26.1878 2.93957,1.5732 15.26718,2.8658 27.39469,2.87244 12.12752,0.007 35.55317,0.79009 52.05702,1.74103 l 30.00698,1.72897 -8.1738,5.17528 c -8.5533,5.41557 -42.89785,9.5526 -81.25971,9.78828 -20.37257,0.12516 -24.59216,2.49216 -30.0545,16.85919 -5.6661,14.90298 -3.26093,17.07422 85.64253,77.31246 93.40322,63.28717 95.82713,64.37692 108.82745,48.92692 z"
     id="path838"
     inkscape:connector-curvature="0"
     transform="scale(0.75)" />
  <path
     style="fill:#d4d010;fill-opacity:0;stroke-width:2.65160084"
     d="M 248.98532,616.3571 C 182.79356,602.16327 110.82392,557.25897 69.102133,504.12189 44.363864,472.6151 22.87513,427.27781 11.185356,381.92815 5.6627463,360.50356 4.6522236,350.36142 4.5707487,315.5405 4.4639263,269.88658 7.9333715,248.11361 21.401637,209.91592 31.642239,180.87229 39.162532,165.85137 56.907434,138.99717 94.903689,81.49565 162.53674,32.980822 230.42411,14.529449 278.2456,1.5318597 359.28067,2.8693971 405.67647,17.422105 481.53667,41.21675 553.35494,102.91431 590.1586,175.90684 c 10.76985,21.35975 27.39923,69.69896 27.39923,79.64556 0,3.82584 0.89491,6.95431 1.9887,6.95214 1.09378,-0.002 1.22533,25.35377 0.29234,56.34653 -2.02108,67.13564 -6.59429,86.48949 -31.95606,135.23803 -44.46904,85.47515 -134.42895,151.42805 -223.08183,163.5495 -28.84483,3.94391 -94.85346,3.21355 -115.81566,-1.2815 z m 112.69303,-38.60375 c 22.76596,-3.72868 47.00273,-12.02692 72.91902,-24.96618 55.92486,-27.92167 101.95535,-77.4042 127.20872,-136.74875 15.20608,-35.73379 18.63429,-54.48777 18.5833,-101.66023 -0.0525,-48.66902 -3.20672,-67.54308 -16.90019,-101.13055 C 538.91493,152.97166 491.06931,101.10931 433.27157,72.098022 387.95497,49.351572 361.03828,43.92799 302.45676,45.739474 267.65948,46.815491 257.13535,48.159972 237.6144,54.023228 149.34343,80.536047 79.354786,150.40051 54.237609,237.07463 17.517255,363.78889 75.44429,494.87706 194.66999,554.87141 c 22.76007,11.45285 57.73107,22.57536 80.83133,25.70839 19.09386,2.58963 61.62559,1.19467 86.17703,-2.82645 z"
     id="path840"
     inkscape:connector-curvature="0"
     transform="scale(0.75)" />
  <path
     style="fill:#d4d0a1;fill-opacity:0;stroke-width:2.65160084"
     d="M 248.98532,616.3571 C 182.79356,602.16327 110.82392,557.25897 69.102133,504.12189 44.363864,472.6151 22.87513,427.27781 11.185356,381.92815 5.6627463,360.50356 4.6522236,350.36142 4.5707487,315.5405 4.4639263,269.88658 7.9333715,248.11361 21.401637,209.91592 31.642239,180.87229 39.162532,165.85137 56.907434,138.99717 94.903689,81.49565 162.53674,32.980822 230.42411,14.529449 278.2456,1.5318597 359.28067,2.8693971 405.67647,17.422105 481.53667,41.21675 553.35494,102.91431 590.1586,175.90684 c 10.76985,21.35975 27.39923,69.69896 27.39923,79.64556 0,3.82584 0.89491,6.95431 1.9887,6.95214 1.09378,-0.002 1.22533,25.35377 0.29234,56.34653 -2.02108,67.13564 -6.59429,86.48949 -31.95606,135.23803 -44.46904,85.47515 -134.42895,151.42805 -223.08183,163.5495 -28.84483,3.94391 -94.85346,3.21355 -115.81566,-1.2815 z m 112.69303,-38.60375 c 22.76596,-3.72868 47.00273,-12.02692 72.91902,-24.96618 55.92486,-27.92167 101.95535,-77.4042 127.20872,-136.74875 15.20608,-35.73379 18.63429,-54.48777 18.5833,-101.66023 -0.0525,-48.66902 -3.20672,-67.54308 -16.90019,-101.13055 C 538.91493,152.97166 491.06931,101.10931 433.27157,72.098022 387.95497,49.351572 361.03828,43.92799 302.45676,45.739474 267.65948,46.815491 257.13535,48.159972 237.6144,54.023228 149.34343,80.536047 79.354786,150.40051 54.237609,237.07463 17.517255,363.78889 75.44429,494.87706 194.66999,554.87141 c 22.76007,11.45285 57.73107,22.57536 80.83133,25.70839 19.09386,2.58963 61.62559,1.19467 86.17703,-2.82645 z"
     id="path842"
     inkscape:connector-curvature="0"
     transform="scale(0.75)" />
  <path
     style="fill:#d4d0a1;fill-opacity:0;stroke-width:2.65160084"
     d=""
     id="path844"
     inkscape:connector-curvature="0"
     transform="scale(0.75)" />
  <path
     style="fill:#d4d0a1;fill-opacity:0;stroke-width:2.65160084"
     d=""
     id="path846"
     inkscape:connector-curvature="0"
     transform="scale(0.75)" />
  <path
     style="fill:#d4d0a1;fill-opacity:0;stroke-width:2.65160084"
     d=""
     id="path848"
     inkscape:connector-curvature="0"
     transform="scale(0.75)" />
  <path
     style="fill:#d4d0a1;fill-opacity:0;stroke-width:2.65160084"
     d="M 248.98532,616.3571 C 182.79356,602.16327 110.82392,557.25897 69.102133,504.12189 44.363864,472.6151 22.87513,427.27781 11.185356,381.92815 5.6627463,360.50356 4.6522236,350.36142 4.5707487,315.5405 4.4639263,269.88658 7.9333715,248.11361 21.401637,209.91592 31.642239,180.87229 39.162532,165.85137 56.907434,138.99717 94.903689,81.49565 162.53674,32.980822 230.42411,14.529449 278.2456,1.5318597 359.28067,2.8693971 405.67647,17.422105 481.53667,41.21675 553.35494,102.91431 590.1586,175.90684 c 10.76985,21.35975 27.39923,69.69896 27.39923,79.64556 0,3.82584 0.89491,6.95431 1.9887,6.95214 1.09378,-0.002 1.22533,25.35377 0.29234,56.34653 -2.02108,67.13564 -6.59429,86.48949 -31.95606,135.23803 -44.46904,85.47515 -134.42895,151.42805 -223.08183,163.5495 -28.84483,3.94391 -94.85346,3.21355 -115.81566,-1.2815 z m 112.69303,-38.60375 c 22.76596,-3.72868 47.00273,-12.02692 72.91902,-24.96618 55.92486,-27.92167 101.95535,-77.4042 127.20872,-136.74875 15.20608,-35.73379 18.63429,-54.48777 18.5833,-101.66023 -0.0525,-48.66902 -3.20672,-67.54308 -16.90019,-101.13055 C 538.91493,152.97166 491.06931,101.10931 433.27157,72.098022 387.95497,49.351572 361.03828,43.92799 302.45676,45.739474 267.65948,46.815491 257.13535,48.159972 237.6144,54.023228 149.34343,80.536047 79.354786,150.40051 54.237609,237.07463 17.517255,363.78889 75.44429,494.87706 194.66999,554.87141 c 22.76007,11.45285 57.73107,22.57536 80.83133,25.70839 19.09386,2.58963 61.62559,1.19467 86.17703,-2.82645 z"
     id="path850"
     inkscape:connector-curvature="0"
     transform="scale(0.75)" />
  <path
     style="fill:#d4d0a1;fill-opacity:0;stroke-width:2.65160084"
     d="M 248.98532,616.3571 C 182.79356,602.16327 110.82392,557.25897 69.102133,504.12189 44.363864,472.6151 22.87513,427.27781 11.185356,381.92815 5.6627463,360.50356 4.6522236,350.36142 4.5707487,315.5405 4.4639263,269.88658 7.9333715,248.11361 21.401637,209.91592 31.642239,180.87229 39.162532,165.85137 56.907434,138.99717 94.903689,81.49565 162.53674,32.980822 230.42411,14.529449 278.2456,1.5318597 359.28067,2.8693971 405.67647,17.422105 481.53667,41.21675 553.35494,102.91431 590.1586,175.90684 c 10.76985,21.35975 27.39923,69.69896 27.39923,79.64556 0,3.82584 0.89491,6.95431 1.9887,6.95214 1.09378,-0.002 1.22533,25.35377 0.29234,56.34653 -2.02108,67.13564 -6.59429,86.48949 -31.95606,135.23803 -44.46904,85.47515 -134.42895,151.42805 -223.08183,163.5495 -28.84483,3.94391 -94.85346,3.21355 -115.81566,-1.2815 z m 112.69303,-38.60375 c 22.76596,-3.72868 47.00273,-12.02692 72.91902,-24.96618 55.92486,-27.92167 101.95535,-77.4042 127.20872,-136.74875 15.20608,-35.73379 18.63429,-54.48777 18.5833,-101.66023 -0.0525,-48.66902 -3.20672,-67.54308 -16.90019,-101.13055 C 538.91493,152.97166 491.06931,101.10931 433.27157,72.098022 387.95497,49.351572 361.03828,43.92799 302.45676,45.739474 267.65948,46.815491 257.13535,48.159972 237.6144,54.023228 149.34343,80.536047 79.354786,150.40051 54.237609,237.07463 17.517255,363.78889 75.44429,494.87706 194.66999,554.87141 c 22.76007,11.45285 57.73107,22.57536 80.83133,25.70839 19.09386,2.58963 61.62559,1.19467 86.17703,-2.82645 z"
     id="path852"
     inkscape:connector-curvature="0"
     transform="scale(0.75)" />
  <path
     style="fill:#d4d0a1;fill-opacity:0;stroke-width:2.65160084"
     d="M 248.98532,616.3571 C 182.79356,602.16327 110.82392,557.25897 69.102133,504.12189 44.363864,472.6151 22.87513,427.27781 11.185356,381.92815 5.6627463,360.50356 4.6522236,350.36142 4.5707487,315.5405 4.4639263,269.88658 7.9333715,248.11361 21.401637,209.91592 31.642239,180.87229 39.162532,165.85137 56.907434,138.99717 94.903689,81.49565 162.53674,32.980822 230.42411,14.529449 278.2456,1.5318597 359.28067,2.8693971 405.67647,17.422105 481.53667,41.21675 553.35494,102.91431 590.1586,175.90684 c 10.76985,21.35975 27.39923,69.69896 27.39923,79.64556 0,3.82584 0.89491,6.95431 1.9887,6.95214 1.09378,-0.002 1.22533,25.35377 0.29234,56.34653 -2.02108,67.13564 -6.59429,86.48949 -31.95606,135.23803 -44.46904,85.47515 -134.42895,151.42805 -223.08183,163.5495 -28.84483,3.94391 -94.85346,3.21355 -115.81566,-1.2815 z m 112.69303,-38.60375 c 22.76596,-3.72868 47.00273,-12.02692 72.91902,-24.96618 55.92486,-27.92167 101.95535,-77.4042 127.20872,-136.74875 15.20608,-35.73379 18.63429,-54.48777 18.5833,-101.66023 -0.0525,-48.66902 -3.20672,-67.54308 -16.90019,-101.13055 C 538.91493,152.97166 491.06931,101.10931 433.27157,72.098022 387.95497,49.351572 361.03828,43.92799 302.45676,45.739474 267.65948,46.815491 257.13535,48.159972 237.6144,54.023228 149.34343,80.536047 79.354786,150.40051 54.237609,237.07463 17.517255,363.78889 75.44429,494.87706 194.66999,554.87141 c 22.76007,11.45285 57.73107,22.57536 80.83133,25.70839 19.09386,2.58963 61.62559,1.19467 86.17703,-2.82645 z"
     id="path854"
     inkscape:connector-curvature="0"
     transform="scale(0.75)" />
  <path
     style="fill:#eeff94;fill-opacity:1;stroke-width:2.65160084"
     d="M 262.19457,575.42278 C 240.65825,571.98925 204.86462,558.28726 180.38268,544.10475 134.78513,517.68984 97.095017,478.07527 75.186051,433.53673 1.1367285,283.00255 74.755588,110.17462 235.72732,56.649407 c 21.97129,-7.305743 23.9402,-7.489486 78.22222,-7.299897 53.09637,0.185448 56.64246,0.522408 76.32044,7.252136 24.75689,8.466675 53.50713,22.650973 73.74704,36.384038 48.56136,32.949556 91.5362,92.667496 106.19144,147.563856 8.01415,30.01983 10.0204,100.86456 3.66531,129.42949 -14.45019,64.9508 -55.94801,126.21285 -110.66361,163.3695 -19.83744,13.47135 -60.93614,32.91143 -80.17014,37.92126 -17.47943,4.55282 -100.45227,7.40427 -120.84545,4.15299 z m 131.06729,-127.5057 c 7.81268,-9.28485 8.68267,-17.23384 2.80468,-25.62587 -2.23302,-3.18807 -24.34135,-20.218 -49.1296,-37.84428 -24.78828,-17.62628 -44.42519,-33.09041 -43.6376,-34.36475 0.78758,-1.27436 7.34853,-4.28215 14.57987,-6.68402 15.98361,-5.3089 36.84521,-23.45932 49.2476,-42.8474 l 9.06948,-14.17787 17.93124,-0.0843 c 18.84883,-0.0886 23.37911,-2.07953 30.84658,-13.5558 9.39011,-14.43107 -3.13202,-31.40665 -23.21644,-31.4733 -17.96931,-0.0596 -22.10319,-2.28203 -28.14221,-15.12949 -8.22229,-17.49219 -6.52108,-19.30512 18.1155,-19.30512 17.16779,0 22.19658,-0.98967 27.92502,-5.49565 8.90466,-7.00441 9.60346,-22.28158 1.49094,-32.59497 l -5.49566,-6.98659 h -97.5211 c -100.48906,0 -111.7493,1.03146 -116.92963,10.71099 -4.57844,8.55489 -2.97648,20.96842 3.54795,27.49285 5.64503,5.64503 9.24919,6.29555 44.41431,8.01642 21.04891,1.03007 43.04362,3.08504 48.87714,4.56662 10.61023,2.69474 27.84181,16.47717 27.84181,22.26886 0,4.16392 -26.78049,6.45034 -75.82255,6.47343 -43.40353,0.0204 -45.10565,0.55609 -50.99563,16.04789 -3.15899,8.3088 1.9448,22.00649 9.75764,26.1878 2.93957,1.5732 15.26718,2.8658 27.3947,2.87244 12.12751,0.007 35.55317,0.79009 52.05701,1.74103 l 30.00698,1.72897 -8.17379,5.17528 c -8.5533,5.41557 -42.89786,9.5526 -81.25972,9.78828 -20.37257,0.12516 -24.59216,2.49216 -30.05449,16.85919 -5.66611,14.90298 -3.26094,17.07422 85.64252,77.31246 93.40322,63.28717 95.82713,64.37692 108.82745,48.92692 z"
     id="path843"
     inkscape:connector-curvature="0"
     transform="scale(0.75)" />
</svg>
